<svg xmlns="http://www.w3.org/2000/svg" width="600" height="400"><path d="M326,197L271,266L356,263Z" fill="rgb(234,65,77)" stroke="rgb(234,65,77)" stroke-width="1.51"/><path d="M326,197L243,209L271,266Z" fill="rgb(239,75,63)" stroke="rgb(239,75,63)" stroke-width="1.51"/><path d="M356,263L392,260L326,197Z" fill="rgb(227,70,97)" stroke="rgb(227,70,97)" stroke-width="1.51"/><path d="M243,209L209,247L271,266Z" fill="rgb(227,102,98)" stroke="rgb(227,102,98)" stroke-width="1.51"/><path d="M190,334L271,341L271,266Z" fill="rgb(210,105,139)" stroke="rgb(210,105,139)" stroke-width="1.51"/><path d="M271,266L271,341L356,263Z" fill="rgb(224,72,107)" stroke="rgb(224,72,107)" stroke-width="1.51"/><path d="M356,263L431,361L392,260Z" fill="rgb(197,84,159)" stroke="rgb(197,84,159)" stroke-width="1.51"/><path d="M392,260L420,213L326,197Z" fill="rgb(228,69,95)" stroke="rgb(228,69,95)" stroke-width="1.51"/><path d="M271,341L319,374L356,263Z" fill="rgb(222,69,110)" stroke="rgb(222,69,110)" stroke-width="1.51"/><path d="M326,197L263,111L243,209Z" fill="rgb(238,99,67)" stroke="rgb(238,99,67)" stroke-width="1.51"/><path d="M420,213L387,124L326,197Z" fill="rgb(229,88,94)" stroke="rgb(229,88,94)" stroke-width="1.51"/><path d="M327,99L263,111L326,197Z" fill="rgb(231,117,88)" stroke="rgb(231,117,88)" stroke-width="1.51"/><path d="M243,209L172,188L209,247Z" fill="rgb(228,116,95)" stroke="rgb(228,116,95)" stroke-width="1.51"/><path d="M387,124L327,99L326,197Z" fill="rgb(224,117,108)" stroke="rgb(224,117,108)" stroke-width="1.51"/><path d="M205,105L172,188L243,209Z" fill="rgb(222,139,111)" stroke="rgb(222,139,111)" stroke-width="1.51"/><path d="M281,422L316,413L319,374Z" fill="rgb(238,44,71)" stroke="rgb(238,44,71)" stroke-width="1.51"/><path d="M209,247L190,334L271,266Z" fill="rgb(207,116,142)" stroke="rgb(207,116,142)" stroke-width="1.51"/><path d="M104,275L190,334L209,247Z" fill="rgb(185,142,177)" stroke="rgb(185,142,177)" stroke-width="1.51"/><path d="M319,374L431,361L356,263Z" fill="rgb(211,74,135)" stroke="rgb(211,74,135)" stroke-width="1.51"/><path d="M482,285L484,215L420,213Z" fill="rgb(208,79,140)" stroke="rgb(208,79,140)" stroke-width="1.51"/><path d="M319,374L424,437L431,361Z" fill="rgb(219,62,120)" stroke="rgb(219,62,120)" stroke-width="1.51"/><path d="M281,422L319,374L271,341Z" fill="rgb(234,60,83)" stroke="rgb(234,60,83)" stroke-width="1.51"/><path d="M482,285L420,213L392,260Z" fill="rgb(204,81,146)" stroke="rgb(204,81,146)" stroke-width="1.51"/><path d="M420,213L499,143L387,124Z" fill="rgb(209,108,139)" stroke="rgb(209,108,139)" stroke-width="1.51"/><path d="M468,330L482,285L392,260Z" fill="rgb(179,89,185)" stroke="rgb(179,89,185)" stroke-width="1.51"/><path d="M263,111L205,105L243,209Z" fill="rgb(220,142,116)" stroke="rgb(220,142,116)" stroke-width="1.51"/><path d="M204,44L205,105L263,111Z" fill="rgb(199,176,152)" stroke="rgb(199,176,152)" stroke-width="1.51"/><path d="M431,361L468,330L392,260Z" fill="rgb(187,85,175)" stroke="rgb(187,85,175)" stroke-width="1.51"/><path d="M387,124L343,66L327,99Z" fill="rgb(207,146,143)" stroke="rgb(207,146,143)" stroke-width="1.51"/><path d="M327,99L258,27L263,111Z" fill="rgb(223,152,114)" stroke="rgb(223,152,114)" stroke-width="1.51"/><path d="M420,61L343,66L387,124Z" fill="rgb(202,149,154)" stroke="rgb(202,149,154)" stroke-width="1.51"/><path d="M179,400L281,422L271,341Z" fill="rgb(227,91,104)" stroke="rgb(227,91,104)" stroke-width="1.51"/><path d="M190,334L179,400L271,341Z" fill="rgb(212,113,135)" stroke="rgb(212,113,135)" stroke-width="1.51"/><path d="M126,369L179,400L190,334Z" fill="rgb(200,135,157)" stroke="rgb(200,135,157)" stroke-width="1.51"/><path d="M499,143L420,61L387,124Z" fill="rgb(180,144,183)" stroke="rgb(180,144,183)" stroke-width="1.51"/><path d="M172,188L104,275L209,247Z" fill="rgb(207,140,140)" stroke="rgb(207,140,140)" stroke-width="1.51"/><path d="M93,214L104,275L172,188Z" fill="rgb(217,146,128)" stroke="rgb(217,146,128)" stroke-width="1.51"/><path d="M484,215L499,143L420,213Z" fill="rgb(219,80,116)" stroke="rgb(219,80,116)" stroke-width="1.51"/><path d="M538,181L499,143L484,215Z" fill="rgb(222,85,113)" stroke="rgb(222,85,113)" stroke-width="1.51"/><path d="M84,137L93,214L172,188Z" fill="rgb(220,159,122)" stroke="rgb(220,159,122)" stroke-width="1.51"/><path d="M316,-21L258,27L343,66Z" fill="rgb(247,151,76)" stroke="rgb(247,151,76)" stroke-width="1.51"/><path d="M343,66L258,27L327,99Z" fill="rgb(231,147,101)" stroke="rgb(231,147,101)" stroke-width="1.51"/><path d="M205,105L84,137L172,188Z" fill="rgb(190,177,163)" stroke="rgb(190,177,163)" stroke-width="1.51"/><path d="M342,492L424,437L316,413Z" fill="rgb(228,55,100)" stroke="rgb(228,55,100)" stroke-width="1.51"/><path d="M316,413L424,437L319,374Z" fill="rgb(229,53,96)" stroke="rgb(229,53,96)" stroke-width="1.51"/><path d="M431,361L506,438L468,330Z" fill="rgb(203,71,152)" stroke="rgb(203,71,152)" stroke-width="1.51"/><path d="M104,275L126,369L190,334Z" fill="rgb(182,148,183)" stroke="rgb(182,148,183)" stroke-width="1.51"/><path d="M258,27L204,44L263,111Z" fill="rgb(218,172,129)" stroke="rgb(218,172,129)" stroke-width="1.51"/><path d="M482,285L540,252L484,215Z" fill="rgb(210,75,138)" stroke="rgb(210,75,138)" stroke-width="1.51"/><path d="M561,329L540,252L482,285Z" fill="rgb(197,78,160)" stroke="rgb(197,78,160)" stroke-width="1.51"/><path d="M561,329L482,285L468,330Z" fill="rgb(191,81,170)" stroke="rgb(191,81,170)" stroke-width="1.51"/><path d="M499,143L509,63L420,61Z" fill="rgb(181,150,186)" stroke="rgb(181,150,186)" stroke-width="1.51"/><path d="M540,252L538,181L484,215Z" fill="rgb(225,65,105)" stroke="rgb(225,65,105)" stroke-width="1.51"/><path d="M259,525L342,492L281,422Z" fill="rgb(238,50,71)" stroke="rgb(238,50,71)" stroke-width="1.51"/><path d="M281,422L342,492L316,413Z" fill="rgb(237,46,75)" stroke="rgb(237,46,75)" stroke-width="1.51"/><path d="M111,25L84,137L205,105Z" fill="rgb(164,207,193)" stroke="rgb(164,207,193)" stroke-width="1.51"/><path d="M84,137L64,202L93,214Z" fill="rgb(231,158,104)" stroke="rgb(231,158,104)" stroke-width="1.51"/><path d="M93,214L52,281L104,275Z" fill="rgb(215,151,141)" stroke="rgb(215,151,141)" stroke-width="1.51"/><path d="M104,275L52,281L126,369Z" fill="rgb(192,153,177)" stroke="rgb(192,153,177)" stroke-width="1.51"/><path d="M561,407L561,329L468,330Z" fill="rgb(209,67,143)" stroke="rgb(209,67,143)" stroke-width="1.51"/><path d="M655,184L559,132L538,181Z" fill="rgb(229,88,100)" stroke="rgb(229,88,100)" stroke-width="1.51"/><path d="M64,202L52,281L93,214Z" fill="rgb(229,151,115)" stroke="rgb(229,151,115)" stroke-width="1.51"/><path d="M258,27L262,-34L204,44Z" fill="rgb(238,178,102)" stroke="rgb(238,178,102)" stroke-width="1.51"/><path d="M394,-17L316,-21L343,66Z" fill="rgb(242,154,97)" stroke="rgb(242,154,97)" stroke-width="1.51"/><path d="M559,132L509,63L499,143Z" fill="rgb(195,136,165)" stroke="rgb(195,136,165)" stroke-width="1.51"/><path d="M420,61L394,-17L343,66Z" fill="rgb(223,153,132)" stroke="rgb(223,153,132)" stroke-width="1.51"/><path d="M165,497L259,525L281,422Z" fill="rgb(228,94,103)" stroke="rgb(228,94,103)" stroke-width="1.51"/><path d="M126,369L103,407L179,400Z" fill="rgb(207,139,149)" stroke="rgb(207,139,149)" stroke-width="1.51"/><path d="M21,330L103,407L126,369Z" fill="rgb(216,146,144)" stroke="rgb(216,146,144)" stroke-width="1.51"/><path d="M538,181L559,132L499,143Z" fill="rgb(216,106,128)" stroke="rgb(216,106,128)" stroke-width="1.51"/><path d="M619,264L538,181L540,252Z" fill="rgb(225,60,104)" stroke="rgb(225,60,104)" stroke-width="1.51"/><path d="M511,-2L394,-17L420,61Z" fill="rgb(217,159,152)" stroke="rgb(217,159,152)" stroke-width="1.51"/><path d="M503,498L506,438L424,437Z" fill="rgb(211,63,138)" stroke="rgb(211,63,138)" stroke-width="1.51"/><path d="M424,437L506,438L431,361Z" fill="rgb(207,68,146)" stroke="rgb(207,68,146)" stroke-width="1.51"/><path d="M316,-21L262,-34L258,27Z" fill="rgb(252,163,71)" stroke="rgb(252,163,71)" stroke-width="1.51"/><path d="M204,44L111,25L205,105Z" fill="rgb(190,200,168)" stroke="rgb(190,200,168)" stroke-width="1.51"/><path d="M272,-98L262,-34L316,-21Z" fill="rgb(253,161,68)" stroke="rgb(253,161,68)" stroke-width="1.51"/><path d="M342,492L402,515L424,437Z" fill="rgb(221,59,115)" stroke="rgb(221,59,115)" stroke-width="1.51"/><path d="M259,525L402,515L342,492Z" fill="rgb(233,50,86)" stroke="rgb(233,50,86)" stroke-width="1.51"/><path d="M165,497L281,422L179,400Z" fill="rgb(222,109,117)" stroke="rgb(222,109,117)" stroke-width="1.51"/><path d="M103,407L165,497L179,400Z" fill="rgb(205,137,150)" stroke="rgb(205,137,150)" stroke-width="1.51"/><path d="M138,-38L111,25L204,44Z" fill="rgb(205,215,156)" stroke="rgb(205,215,156)" stroke-width="1.51"/><path d="M84,137L20,110L64,202Z" fill="rgb(222,182,127)" stroke="rgb(222,182,127)" stroke-width="1.51"/><path d="M506,438L561,407L468,330Z" fill="rgb(215,59,131)" stroke="rgb(215,59,131)" stroke-width="1.51"/><path d="M578,516L561,407L506,438Z" fill="rgb(222,48,116)" stroke="rgb(222,48,116)" stroke-width="1.51"/><path d="M52,281L21,330L126,369Z" fill="rgb(208,153,159)" stroke="rgb(208,153,159)" stroke-width="1.51"/><path d="M103,407L126,524L165,497Z" fill="rgb(211,139,144)" stroke="rgb(211,139,144)" stroke-width="1.51"/><path d="M-19,333L21,330L52,281Z" fill="rgb(220,158,149)" stroke="rgb(220,158,149)" stroke-width="1.51"/><path d="M-64,262L52,281L-66,216Z" fill="rgb(240,157,109)" stroke="rgb(240,157,109)" stroke-width="1.51"/><path d="M509,63L511,-2L420,61Z" fill="rgb(208,154,161)" stroke="rgb(208,154,161)" stroke-width="1.51"/><path d="M559,132L542,41L509,63Z" fill="rgb(201,145,160)" stroke="rgb(201,145,160)" stroke-width="1.51"/><path d="M654,352L619,264L561,329Z" fill="rgb(210,64,140)" stroke="rgb(210,64,140)" stroke-width="1.51"/><path d="M561,329L619,264L540,252Z" fill="rgb(209,69,140)" stroke="rgb(209,69,140)" stroke-width="1.51"/><path d="M559,132L651,25L542,41Z" fill="rgb(217,143,139)" stroke="rgb(217,143,139)" stroke-width="1.51"/><path d="M272,-98L176,-51L262,-34Z" fill="rgb(241,181,98)" stroke="rgb(241,181,98)" stroke-width="1.51"/><path d="M542,41L511,-2L509,63Z" fill="rgb(219,151,144)" stroke="rgb(219,151,144)" stroke-width="1.51"/><path d="M402,515L503,498L424,437Z" fill="rgb(208,67,143)" stroke="rgb(208,67,143)" stroke-width="1.51"/><path d="M44,42L20,110L84,137Z" fill="rgb(194,213,167)" stroke="rgb(194,213,167)" stroke-width="1.51"/><path d="M111,25L44,42L84,137Z" fill="rgb(198,214,163)" stroke="rgb(198,214,163)" stroke-width="1.51"/><path d="M262,-34L176,-51L204,44Z" fill="rgb(234,191,112)" stroke="rgb(234,191,112)" stroke-width="1.51"/><path d="M361,-98L316,-21L394,-17Z" fill="rgb(245,156,95)" stroke="rgb(245,156,95)" stroke-width="1.51"/><path d="M21,330L46,434L103,407Z" fill="rgb(229,145,124)" stroke="rgb(229,145,124)" stroke-width="1.51"/><path d="M176,-51L138,-38L204,44Z" fill="rgb(219,207,137)" stroke="rgb(219,207,137)" stroke-width="1.51"/><path d="M511,-2L417,-75L394,-17Z" fill="rgb(224,160,145)" stroke="rgb(224,160,145)" stroke-width="1.51"/><path d="M54,-18L44,42L111,25Z" fill="rgb(228,222,130)" stroke="rgb(228,222,130)" stroke-width="1.51"/><path d="M46,434L126,524L103,407Z" fill="rgb(222,141,131)" stroke="rgb(222,141,131)" stroke-width="1.51"/><path d="M165,497L126,524L259,525Z" fill="rgb(216,122,132)" stroke="rgb(216,122,132)" stroke-width="1.51"/><path d="M361,-98L272,-98L316,-21Z" fill="rgb(253,154,68)" stroke="rgb(253,154,68)" stroke-width="1.51"/><path d="M176,-51L123,-73L138,-38Z" fill="rgb(211,217,149)" stroke="rgb(211,217,149)" stroke-width="1.51"/><path d="M20,110L-17,147L64,202Z" fill="rgb(233,182,111)" stroke="rgb(233,182,111)" stroke-width="1.51"/><path d="M-45,74L-17,147L20,110Z" fill="rgb(216,211,141)" stroke="rgb(216,211,141)" stroke-width="1.51"/><path d="M21,330L-19,333L46,434Z" fill="rgb(234,151,122)" stroke="rgb(234,151,122)" stroke-width="1.51"/><path d="M-64,262L-19,333L52,281Z" fill="rgb(224,160,143)" stroke="rgb(224,160,143)" stroke-width="1.51"/><path d="M417,-75L361,-98L394,-17Z" fill="rgb(237,158,115)" stroke="rgb(237,158,115)" stroke-width="1.51"/><path d="M619,264L655,184L538,181Z" fill="rgb(237,46,76)" stroke="rgb(237,46,76)" stroke-width="1.51"/><path d="M583,-46L515,-77L511,-2Z" fill="rgb(237,153,121)" stroke="rgb(237,153,121)" stroke-width="1.51"/><path d="M695,254L655,184L619,264Z" fill="rgb(230,53,95)" stroke="rgb(230,53,95)" stroke-width="1.51"/><path d="M561,407L654,352L561,329Z" fill="rgb(220,51,120)" stroke="rgb(220,51,120)" stroke-width="1.51"/><path d="M632,442L654,352L561,407Z" fill="rgb(229,33,101)" stroke="rgb(229,33,101)" stroke-width="1.51"/><path d="M44,42L-45,74L20,110Z" fill="rgb(219,219,139)" stroke="rgb(219,219,139)" stroke-width="1.51"/><path d="M138,-38L54,-18L111,25Z" fill="rgb(225,221,133)" stroke="rgb(225,221,133)" stroke-width="1.51"/><path d="M123,-73L54,-18L138,-38Z" fill="rgb(224,220,134)" stroke="rgb(224,220,134)" stroke-width="1.51"/><path d="M166,-121L123,-73L176,-51Z" fill="rgb(212,215,148)" stroke="rgb(212,215,148)" stroke-width="1.51"/><path d="M655,184L664,129L559,132Z" fill="rgb(225,102,110)" stroke="rgb(225,102,110)" stroke-width="1.51"/><path d="M712,143L664,129L655,184Z" fill="rgb(226,98,107)" stroke="rgb(226,98,107)" stroke-width="1.51"/><path d="M578,516L632,442L561,407Z" fill="rgb(228,36,104)" stroke="rgb(228,36,104)" stroke-width="1.51"/><path d="M-66,216L52,281L64,202Z" fill="rgb(243,154,97)" stroke="rgb(243,154,97)" stroke-width="1.51"/><path d="M417,-75L515,-77L361,-98Z" fill="rgb(227,160,139)" stroke="rgb(227,160,139)" stroke-width="1.51"/><path d="M511,-2L515,-77L417,-75Z" fill="rgb(227,158,139)" stroke="rgb(227,158,139)" stroke-width="1.51"/><path d="M583,-46L511,-2L542,41Z" fill="rgb(238,152,118)" stroke="rgb(238,152,118)" stroke-width="1.51"/><path d="M-17,147L-66,216L64,202Z" fill="rgb(253,161,68)" stroke="rgb(253,161,68)" stroke-width="1.51"/><path d="M-100,192L-66,216L-17,147Z" fill="rgb(251,164,72)" stroke="rgb(251,164,72)" stroke-width="1.51"/><path d="M259,525L578,516L402,515Z" fill="rgb(216,63,127)" stroke="rgb(216,63,127)" stroke-width="1.51"/><path d="M402,515L578,516L503,498Z" fill="rgb(214,60,133)" stroke="rgb(214,60,133)" stroke-width="1.51"/><path d="M503,498L578,516L506,438Z" fill="rgb(219,53,122)" stroke="rgb(219,53,122)" stroke-width="1.51"/><path d="M46,434L40,510L126,524Z" fill="rgb(228,142,124)" stroke="rgb(228,142,124)" stroke-width="1.51"/><path d="M-26,509L40,510L46,434Z" fill="rgb(241,146,106)" stroke="rgb(241,146,106)" stroke-width="1.51"/><path d="M-59,401L46,434L-19,333Z" fill="rgb(244,149,105)" stroke="rgb(244,149,105)" stroke-width="1.51"/><path d="M727,340L695,254L654,352Z" fill="rgb(210,65,139)" stroke="rgb(210,65,139)" stroke-width="1.51"/><path d="M654,352L695,254L619,264Z" fill="rgb(210,66,139)" stroke="rgb(210,66,139)" stroke-width="1.51"/><path d="M361,-98L166,-121L272,-98Z" fill="rgb(249,168,79)" stroke="rgb(249,168,79)" stroke-width="1.51"/><path d="M272,-98L166,-121L176,-51Z" fill="rgb(231,195,118)" stroke="rgb(231,195,118)" stroke-width="1.51"/><path d="M123,-73L56,-96L54,-18Z" fill="rgb(232,223,123)" stroke="rgb(232,223,123)" stroke-width="1.51"/><path d="M619,-10L583,-46L542,41Z" fill="rgb(244,149,106)" stroke="rgb(244,149,106)" stroke-width="1.51"/><path d="M-57,-8L-45,74L44,42Z" fill="rgb(239,225,113)" stroke="rgb(239,225,113)" stroke-width="1.51"/><path d="M651,25L619,-10L542,41Z" fill="rgb(240,146,109)" stroke="rgb(240,146,109)" stroke-width="1.51"/><path d="M727,340L727,194L695,254Z" fill="rgb(221,60,117)" stroke="rgb(221,60,117)" stroke-width="1.51"/><path d="M578,516L621,500L632,442Z" fill="rgb(229,33,101)" stroke="rgb(229,33,101)" stroke-width="1.51"/><path d="M664,129L651,25L559,132Z" fill="rgb(207,138,148)" stroke="rgb(207,138,148)" stroke-width="1.51"/><path d="M737,74L651,25L664,129Z" fill="rgb(216,140,139)" stroke="rgb(216,140,139)" stroke-width="1.51"/><path d="M-95,325L-59,401L-19,333Z" fill="rgb(236,154,123)" stroke="rgb(236,154,123)" stroke-width="1.51"/><path d="M-91,285L-19,333L-64,262Z" fill="rgb(224,160,144)" stroke="rgb(224,160,144)" stroke-width="1.51"/><path d="M-100,192L-91,285L-66,216Z" fill="rgb(247,155,89)" stroke="rgb(247,155,89)" stroke-width="1.51"/><path d="M-66,216L-91,285L-64,262Z" fill="rgb(239,157,110)" stroke="rgb(239,157,110)" stroke-width="1.51"/><path d="M361,-98L706,-108L166,-121Z" fill="rgb(232,159,128)" stroke="rgb(232,159,128)" stroke-width="1.51"/><path d="M515,-77L561,-85L361,-98Z" fill="rgb(226,158,140)" stroke="rgb(226,158,140)" stroke-width="1.51"/><path d="M583,-46L561,-85L515,-77Z" fill="rgb(240,152,115)" stroke="rgb(240,152,115)" stroke-width="1.51"/><path d="M641,-81L561,-85L583,-46Z" fill="rgb(246,148,101)" stroke="rgb(246,148,101)" stroke-width="1.51"/><path d="M641,-81L583,-46L619,-10Z" fill="rgb(247,148,99)" stroke="rgb(247,148,99)" stroke-width="1.51"/><path d="M727,194L712,143L655,184Z" fill="rgb(233,78,89)" stroke="rgb(233,78,89)" stroke-width="1.51"/><path d="M-137,108L-100,192L-17,147Z" fill="rgb(237,187,106)" stroke="rgb(237,187,106)" stroke-width="1.51"/><path d="M-91,285L-95,325L-19,333Z" fill="rgb(225,159,143)" stroke="rgb(225,159,143)" stroke-width="1.51"/><path d="M-137,108L-95,325L-91,285Z" fill="rgb(244,156,96)" stroke="rgb(244,156,96)" stroke-width="1.51"/><path d="M695,254L727,194L655,184Z" fill="rgb(236,46,77)" stroke="rgb(236,46,77)" stroke-width="1.51"/><path d="M727,340L654,352L693,443Z" fill="rgb(225,43,111)" stroke="rgb(225,43,111)" stroke-width="1.51"/><path d="M54,-18L-57,-8L44,42Z" fill="rgb(249,228,100)" stroke="rgb(249,228,100)" stroke-width="1.51"/><path d="M166,-121L56,-96L123,-73Z" fill="rgb(221,220,138)" stroke="rgb(221,220,138)" stroke-width="1.51"/><path d="M693,443L654,352L632,442Z" fill="rgb(229,33,101)" stroke="rgb(229,33,101)" stroke-width="1.51"/><path d="M621,500L693,443L632,442Z" fill="rgb(229,33,101)" stroke="rgb(229,33,101)" stroke-width="1.51"/><path d="M40,510L-89,525L126,524Z" fill="rgb(240,146,108)" stroke="rgb(240,146,108)" stroke-width="1.51"/><path d="M-59,401L-26,509L46,434Z" fill="rgb(247,148,99)" stroke="rgb(247,148,99)" stroke-width="1.51"/><path d="M-98,423L-26,509L-59,401Z" fill="rgb(247,148,99)" stroke="rgb(247,148,99)" stroke-width="1.51"/><path d="M-46,-80L-57,-8L54,-18Z" fill="rgb(254,230,89)" stroke="rgb(254,230,89)" stroke-width="1.51"/><path d="M-45,74L-137,108L-17,147Z" fill="rgb(216,211,142)" stroke="rgb(216,211,142)" stroke-width="1.51"/><path d="M-95,325L-98,423L-59,401Z" fill="rgb(243,150,108)" stroke="rgb(243,150,108)" stroke-width="1.51"/><path d="M-137,108L-98,423L-95,325Z" fill="rgb(227,160,137)" stroke="rgb(227,160,137)" stroke-width="1.51"/><path d="M712,143L737,74L664,129Z" fill="rgb(212,127,137)" stroke="rgb(212,127,137)" stroke-width="1.51"/><path d="M701,-35L641,-81L619,-10Z" fill="rgb(247,148,99)" stroke="rgb(247,148,99)" stroke-width="1.51"/><path d="M727,194L737,74L712,143Z" fill="rgb(221,110,119)" stroke="rgb(221,110,119)" stroke-width="1.51"/><path d="M727,340L737,74L727,194Z" fill="rgb(238,44,70)" stroke="rgb(238,44,70)" stroke-width="1.51"/><path d="M701,-35L619,-10L651,25Z" fill="rgb(247,148,99)" stroke="rgb(247,148,99)" stroke-width="1.51"/><path d="M561,-85L706,-108L361,-98Z" fill="rgb(238,153,119)" stroke="rgb(238,153,119)" stroke-width="1.51"/><path d="M-100,192L-137,108L-91,285Z" fill="rgb(255,157,62)" stroke="rgb(255,157,62)" stroke-width="1.51"/><path d="M-125,33L-137,108L-45,74Z" fill="rgb(223,220,135)" stroke="rgb(223,220,135)" stroke-width="1.51"/><path d="M737,74L701,-35L651,25Z" fill="rgb(238,145,111)" stroke="rgb(238,145,111)" stroke-width="1.51"/><path d="M259,525L704,525L578,516Z" fill="rgb(217,56,127)" stroke="rgb(217,56,127)" stroke-width="1.51"/><path d="M578,516L704,525L621,500Z" fill="rgb(229,33,101)" stroke="rgb(229,33,101)" stroke-width="1.51"/><path d="M621,500L704,525L693,443Z" fill="rgb(229,33,101)" stroke="rgb(229,33,101)" stroke-width="1.51"/><path d="M693,443L704,525L727,340Z" fill="rgb(229,33,101)" stroke="rgb(229,33,101)" stroke-width="1.51"/><path d="M-57,-8L-125,33L-45,74Z" fill="rgb(240,225,112)" stroke="rgb(240,225,112)" stroke-width="1.51"/><path d="M56,-96L-46,-80L54,-18Z" fill="rgb(248,228,99)" stroke="rgb(248,228,99)" stroke-width="1.51"/><path d="M-93,-88L-46,-80L56,-96Z" fill="rgb(254,230,89)" stroke="rgb(254,230,89)" stroke-width="1.51"/><path d="M-89,-37L-125,33L-57,-8Z" fill="rgb(254,230,89)" stroke="rgb(254,230,89)" stroke-width="1.51"/><path d="M-46,-80L-89,-37L-57,-8Z" fill="rgb(254,230,89)" stroke="rgb(254,230,89)" stroke-width="1.51"/><path d="M-26,509L-89,525L40,510Z" fill="rgb(247,148,99)" stroke="rgb(247,148,99)" stroke-width="1.51"/><path d="M126,524L-89,525L259,525Z" fill="rgb(220,141,133)" stroke="rgb(220,141,133)" stroke-width="1.51"/><path d="M-98,423L-89,525L-26,509Z" fill="rgb(247,148,99)" stroke="rgb(247,148,99)" stroke-width="1.51"/><path d="M-137,108L-89,525L-98,423Z" fill="rgb(235,154,124)" stroke="rgb(235,154,124)" stroke-width="1.51"/><path d="M-46,-80L-93,-88L-89,-37Z" fill="rgb(254,230,89)" stroke="rgb(254,230,89)" stroke-width="1.51"/><path d="M-89,-37L-93,-88L-125,33Z" fill="rgb(254,230,89)" stroke="rgb(254,230,89)" stroke-width="1.51"/><path d="M166,-121L-93,-88L56,-96Z" fill="rgb(242,226,109)" stroke="rgb(242,226,109)" stroke-width="1.51"/><path d="M737,74L706,-108L701,-35Z" fill="rgb(247,148,99)" stroke="rgb(247,148,99)" stroke-width="1.51"/><path d="M701,-35L706,-108L641,-81Z" fill="rgb(247,148,99)" stroke="rgb(247,148,99)" stroke-width="1.51"/><path d="M641,-81L706,-108L561,-85Z" fill="rgb(247,148,99)" stroke="rgb(247,148,99)" stroke-width="1.51"/></svg>